<svg width="36" height="36" viewBox="0 0 36 36" fill="none" xmlns="http://www.w3.org/2000/svg">
<g clip-path="url(#clip0)">
<path d="M13.9612 9.17084C13.9644 9.95636 13.3143 10.6164 13.3077 10.6227L13.3138 10.6169L14.7805 12.1328C14.9117 12.0056 16.0637 10.8435 16.0705 9.19144C16.0733 8.48309 15.853 7.41824 14.7868 6.36932C14.3487 5.93839 14.135 5.51376 14.1331 5.07101C14.1298 4.28577 14.7799 3.62576 14.7865 3.61917L14.7805 3.62521L13.3138 2.10938C13.1825 2.23654 12.0306 3.39862 12.0237 5.05069C12.0207 5.75903 12.2412 6.82361 13.3075 7.8728C13.7455 8.30374 13.9592 8.72836 13.9612 9.17084Z" fill="white"/>
<path d="M18.7231 9.17084C18.7267 9.95636 18.0763 10.6164 18.0697 10.6227L18.0757 10.6169L19.5427 12.1328C19.6737 12.0056 20.8256 10.8435 20.8325 9.19144C20.8355 8.48309 20.6149 7.41824 19.5487 6.36932C19.1109 5.93839 18.897 5.51376 18.895 5.07101C18.8917 4.28577 19.5421 3.62576 19.5487 3.61917L19.5427 3.62521L18.0757 2.10938C17.9444 2.23654 16.7925 3.39862 16.7857 5.05069C16.7829 5.75903 17.0032 6.82361 18.0694 7.8728C18.5075 8.30374 18.7215 8.72836 18.7231 9.17084Z" fill="white"/>
<path d="M23.4852 9.17084C23.4888 9.95636 22.8384 10.6164 22.8318 10.6227L22.8378 10.6169L24.3048 12.1328C24.4358 12.0056 25.5877 10.8435 25.5946 9.19144C25.5976 8.48309 25.377 7.41824 24.3108 6.36932C23.873 5.93839 23.659 5.51376 23.6571 5.07101C23.6538 4.28577 24.3039 3.62576 24.3108 3.61917L24.3048 3.62521L22.8378 2.10938C22.7065 2.23654 21.5546 3.39862 21.5478 5.05069C21.545 5.75903 21.7653 6.82361 22.8315 7.8728C23.2696 8.30374 23.4835 8.72836 23.4852 9.17084Z" fill="white"/>
<path d="M32.5253 27.3704C34.7984 24.2758 36 20.6061 36 16.7578C36 16.7296 35.9995 16.7015 35.9989 16.6732L35.9909 15.5864H0.00878906L0.00137329 16.6337L0.000823978 16.6735C0.000549316 16.7018 0 16.7296 0 16.7578C0 20.6061 1.20163 24.2758 3.4747 27.3704C4.75461 29.1122 6.3089 30.5877 8.07413 31.7525H4.74033V33.8619H31.2597V31.7525H27.9259C29.6911 30.588 31.2454 29.1122 32.5253 27.3704ZM33.8632 17.6958C33.8107 18.592 33.683 19.472 33.4858 20.3281H2.51422C2.31702 19.472 2.1893 18.592 2.13684 17.6958H33.8632ZM23.1809 31.7525H12.8191C8.28232 30.193 4.80542 26.7318 3.15884 22.4375H32.8412C31.1946 26.7318 27.7177 30.193 23.1809 31.7525Z" fill="white"/>
</g>
<defs>
<clipPath id="clip0">
<rect width="36" height="36" fill="white"/>
</clipPath>
</defs>
</svg>
