<svg width="24" height="24" viewBox="0 0 24 24" fill="none" xmlns="http://www.w3.org/2000/svg">
<g clip-path="url(#clip0)">
<path d="M23.7859 17.3671C23.7214 17.2591 23.3224 16.392 21.4023 14.6099C19.3921 12.7438 19.6621 13.0468 22.0833 9.82005C23.5579 7.8549 24.1475 6.65481 23.963 6.14178C23.7874 5.65274 22.7029 5.78175 22.7029 5.78175L19.0966 5.80275C19.0966 5.80275 18.8296 5.76675 18.6301 5.88526C18.4366 6.00227 18.312 6.27229 18.312 6.27229C18.312 6.27229 17.7405 7.7934 16.9785 9.08649C15.3718 11.8152 14.7283 11.9592 14.4658 11.7897C13.8552 11.3952 14.0082 10.2026 14.0082 9.35652C14.0082 6.71182 14.4088 5.60924 13.2267 5.32422C12.8336 5.22971 12.5456 5.1667 11.5421 5.1562C10.255 5.1427 9.16438 5.1607 8.54784 5.46223C8.13681 5.66324 7.82028 6.11177 8.0138 6.13728C8.25231 6.16878 8.79235 6.28279 9.07887 6.67282C9.4494 7.17535 9.4359 8.30644 9.4359 8.30644C9.4359 8.30644 9.64892 11.4192 8.93937 11.8062C8.45183 12.0717 7.78428 11.5302 6.35168 9.05349C5.61812 7.7859 5.06308 6.38329 5.06308 6.38329C5.06308 6.38329 4.95657 6.12228 4.76606 5.98276C4.53504 5.81325 4.21102 5.75925 4.21102 5.75925L0.78177 5.78025C0.78177 5.78025 0.267232 5.79525 0.0782185 6.01877C-0.0897937 6.21828 0.0647175 6.62931 0.0647175 6.62931C0.0647175 6.62931 2.74991 12.9103 5.78914 16.077C8.57784 18.9797 11.7431 18.7892 11.7431 18.7892H13.1772C13.1772 18.7892 13.6107 18.7412 13.8312 18.5027C14.0352 18.2837 14.0277 17.8726 14.0277 17.8726C14.0277 17.8726 13.9992 15.948 14.8933 15.6645C15.7739 15.3855 16.9049 17.5246 18.1035 18.3482C19.0096 18.9707 19.6982 18.8342 19.6982 18.8342L22.9039 18.7892C22.9039 18.7892 24.581 18.6857 23.7859 17.3671Z"/>
</g>
<defs>
<clipPath id="clip0">
<rect width="24" height="24"/>
</clipPath>
</defs>
</svg>
